<?xml version="1.0" standalone="no"?>
<!DOCTYPE svg PUBLIC "-//W3C//DTD SVG 20010904//EN"
 "http://www.w3.org/TR/2001/REC-SVG-20010904/DTD/svg10.dtd">
<svg version="1.0" xmlns="http://www.w3.org/2000/svg"
 width="736.000000pt" height="736.000000pt" viewBox="0 0 736.000000 736.000000"
 preserveAspectRatio="xMidYMid meet">
<metadata>
Created by potrace 1.14, written by Peter Selinger 2001-2017
</metadata>
<g transform="translate(0.000000,736.000000) scale(0.100000,-0.100000)"
fill="#000000" stroke="none">
<path d="M3602 7314 c-40 -24 -75 -44 -78 -44 -2 0 -17 -8 -32 -19 -25 -17
-268 -160 -372 -219 -24 -14 -84 -49 -133 -78 -49 -30 -91 -54 -94 -54 -2 0
-27 -15 -56 -33 -29 -18 -59 -36 -67 -40 -8 -4 -28 -16 -45 -27 -16 -11 -37
-23 -45 -27 -8 -3 -33 -18 -55 -32 -22 -14 -43 -24 -47 -23 -3 1 -12 -5 -18
-13 -7 -8 -16 -15 -20 -15 -5 0 -44 -22 -87 -48 -43 -27 -85 -52 -93 -55 -8
-4 -33 -18 -55 -32 -22 -14 -60 -36 -85 -50 -25 -14 -58 -34 -75 -44 -31 -19
-184 -109 -242 -142 -17 -10 -50 -29 -72 -43 -22 -15 -44 -26 -49 -26 -4 0
-17 -7 -27 -15 -17 -13 -248 -149 -605 -356 -47 -27 -92 -54 -100 -59 -32 -20
-213 -126 -248 -145 -20 -11 -39 -22 -42 -25 -4 -5 -151 -91 -230 -136 -20
-11 -21 -11 130 -90 19 -11 37 -22 38 -26 2 -5 8 -8 13 -8 5 0 44 -20 87 -44
42 -23 104 -58 137 -76 33 -18 90 -50 127 -71 36 -22 71 -39 77 -39 6 0 11 -5
11 -12 0 -6 3 -8 7 -5 3 4 11 3 17 -2 6 -5 34 -21 61 -37 28 -15 64 -35 82
-45 18 -10 63 -35 100 -55 37 -20 73 -40 78 -44 6 -4 51 -29 100 -55 50 -27
106 -58 125 -69 19 -12 49 -28 65 -36 17 -8 32 -17 35 -20 3 -3 21 -13 40 -24
19 -10 63 -33 98 -52 l62 -34 38 23 c20 13 78 45 127 72 50 27 106 57 125 68
128 72 232 127 240 127 6 0 10 4 10 8 0 4 12 13 28 19 15 6 56 28 92 48 36 20
93 52 128 71 34 19 92 51 130 71 70 39 96 53 263 144 193 105 224 122 338 186
130 72 152 80 172 61 8 -8 17 -15 22 -16 4 -1 51 -26 105 -55 156 -87 194
-108 252 -140 30 -16 64 -35 75 -42 11 -7 52 -29 90 -50 39 -21 84 -46 100
-56 17 -9 60 -33 96 -52 36 -20 81 -44 100 -56 30 -17 339 -189 497 -277 31
-17 57 -35 59 -40 2 -7 -93 -68 -286 -180 -20 -12 -118 -71 -219 -133 -101
-61 -187 -111 -193 -111 -5 0 -9 -4 -9 -9 0 -5 -6 -11 -12 -13 -7 -2 -102 -57
-211 -123 -109 -66 -205 -124 -215 -130 -86 -49 -351 -211 -364 -223 -10 -8
-18 -11 -18 -6 0 5 -4 4 -8 -1 -4 -6 -70 -48 -147 -94 -175 -105 -513 -309
-540 -326 -11 -7 -24 -12 -29 -13 -5 0 -12 -4 -15 -9 -3 -5 -85 -56 -181 -113
-96 -58 -176 -108 -178 -112 -2 -5 -7 -8 -12 -8 -5 0 -59 -31 -122 -70 -62
-38 -131 -79 -153 -91 -21 -11 -50 -29 -63 -40 -14 -10 -29 -19 -34 -19 -5 0
-24 -11 -42 -25 -18 -14 -36 -25 -39 -25 -5 0 -168 -98 -217 -130 -8 -6 -22
-13 -30 -17 -8 -4 -20 -12 -27 -17 -7 -6 -84 -54 -172 -106 -88 -52 -157 -98
-153 -101 7 -7 109 -64 149 -83 13 -6 23 -14 23 -18 0 -5 4 -8 9 -8 9 0 165
-86 201 -110 8 -6 29 -17 45 -25 17 -9 37 -20 45 -25 47 -31 172 -100 180
-100 6 0 10 -4 10 -10 0 -5 5 -10 11 -10 5 0 56 -26 112 -59 56 -32 125 -71
152 -86 28 -15 55 -31 60 -35 6 -4 35 -21 65 -38 30 -16 158 -89 284 -161 125
-72 232 -131 236 -131 5 0 10 -3 12 -7 2 -5 28 -21 58 -37 30 -16 63 -36 73
-44 9 -8 17 -11 17 -6 0 5 4 5 8 -1 4 -5 18 -16 31 -23 57 -33 99 -57 146 -84
28 -16 62 -34 78 -41 15 -6 27 -15 27 -19 0 -4 4 -8 10 -8 5 0 33 -14 62 -31
121 -72 155 -88 176 -82 12 3 22 8 22 12 0 4 16 13 35 20 19 7 35 17 35 22 0
5 7 9 15 9 8 0 49 20 91 45 41 25 77 45 78 45 2 0 65 34 140 75 75 41 141 75
146 75 6 0 10 3 10 8 0 4 10 12 23 18 44 21 201 105 211 113 6 4 56 32 111 61
55 29 105 56 110 60 6 4 48 28 95 53 47 24 105 56 130 70 178 99 300 165 332
180 20 10 40 22 43 26 3 5 19 12 35 16 23 5 39 0 74 -24 25 -17 49 -31 54 -31
6 0 12 -4 14 -8 3 -7 78 -56 133 -87 11 -6 53 -32 93 -58 40 -26 77 -47 82
-47 6 0 10 -3 10 -8 0 -4 9 -12 19 -17 61 -32 121 -71 118 -78 -2 -8 -79 -56
-117 -74 -8 -4 -43 -24 -78 -45 -34 -21 -64 -38 -67 -38 -3 0 -33 -17 -67 -38
-35 -21 -83 -50 -108 -64 -120 -68 -566 -328 -575 -335 -5 -5 -25 -15 -42 -22
-18 -7 -33 -16 -33 -20 0 -4 -12 -12 -27 -19 -16 -6 -45 -22 -65 -34 -21 -13
-61 -36 -90 -52 -29 -15 -60 -34 -69 -42 -9 -8 -19 -11 -22 -7 -4 3 -7 1 -7
-5 0 -7 -7 -12 -15 -12 -8 0 -15 -4 -15 -10 0 -5 -5 -10 -11 -10 -6 0 -48 -22
-93 -49 -44 -27 -108 -64 -141 -82 -33 -18 -62 -35 -65 -38 -3 -3 -18 -13 -35
-21 -16 -8 -32 -17 -35 -20 -3 -3 -14 -10 -25 -16 -32 -17 -407 -234 -440
-254 -27 -17 -33 -17 -60 -4 -16 7 -37 18 -45 24 -15 10 -154 90 -220 127 -19
11 -107 62 -195 113 -88 51 -185 107 -215 123 -30 17 -111 64 -179 104 -67 40
-125 73 -127 73 -2 0 -41 22 -86 49 -198 116 -792 458 -843 485 -22 11 -42 23
-45 26 -3 3 -43 28 -90 54 -98 56 -101 58 -281 161 -74 43 -154 89 -179 103
-25 14 -62 36 -82 49 -21 12 -42 23 -48 23 -5 0 -10 4 -10 8 0 4 -12 13 -27
19 -16 7 -50 25 -78 41 l-50 29 1 269 c1 148 5 431 9 629 6 357 9 479 20 1125
3 184 7 391 9 459 1 79 -2 127 -8 132 -20 17 -81 54 -136 83 -30 17 -61 36
-68 43 -7 7 -18 13 -23 13 -5 0 -28 12 -51 26 -23 14 -61 37 -85 49 l-43 23 0
-1558 0 -1558 85 -51 c46 -28 89 -51 95 -51 5 0 10 -4 10 -10 0 -5 5 -10 10
-10 6 0 54 -25 108 -56 120 -70 169 -98 253 -146 13 -7 27 -17 31 -23 4 -5 8
-6 8 -1 0 5 8 2 18 -6 9 -8 42 -29 72 -45 69 -38 322 -183 335 -193 6 -4 30
-19 55 -32 73 -40 116 -65 290 -166 91 -52 182 -105 202 -116 21 -12 95 -54
165 -95 70 -41 153 -87 183 -104 30 -17 57 -34 58 -39 2 -4 9 -8 16 -8 8 0 25
-9 40 -21 14 -11 26 -17 26 -14 0 4 6 2 14 -4 21 -18 378 -221 388 -221 4 0 8
-4 8 -10 0 -5 4 -10 9 -10 9 0 94 -49 486 -275 243 -141 235 -137 259 -122 31
20 319 190 471 278 39 22 84 48 100 58 17 10 113 67 215 127 102 60 187 112
188 116 2 4 12 8 23 8 10 0 19 4 19 8 0 5 15 16 33 25 17 9 53 29 79 44 196
116 267 158 293 172 17 9 32 19 33 24 2 4 7 7 12 7 4 0 70 37 146 83 77 46
146 86 154 90 8 4 29 16 45 27 17 10 64 38 105 61 41 23 94 55 117 70 23 16
49 29 57 29 9 0 16 4 16 8 0 5 10 14 23 20 12 6 45 25 72 42 28 17 59 35 70
41 11 5 29 15 40 22 22 13 228 135 257 152 22 13 161 94 340 200 l140 83 -198
118 c-110 64 -281 166 -381 226 -100 59 -186 108 -191 108 -6 0 -12 3 -14 8
-1 4 -64 43 -138 86 -74 44 -143 86 -152 94 -10 8 -18 11 -18 7 0 -4 -8 -1
-17 7 -10 8 -74 48 -143 88 l-124 73 -75 -39 c-42 -21 -123 -64 -181 -95 -58
-31 -154 -82 -215 -114 -60 -31 -150 -79 -200 -106 -182 -97 -322 -171 -395
-207 -41 -20 -77 -40 -80 -43 -3 -3 -68 -39 -145 -78 -137 -71 -281 -147 -360
-189 -43 -24 -65 -28 -65 -12 0 6 -4 10 -10 10 -8 0 -115 59 -180 99 -56 35
-175 101 -182 101 -4 0 -8 5 -8 10 0 6 -4 10 -10 10 -9 0 -532 299 -555 317
-5 5 -21 14 -35 21 -14 6 -38 20 -55 30 -16 10 -64 37 -105 60 -41 24 -82 47
-90 52 -84 53 -170 100 -181 100 -8 0 -9 3 -3 9 14 15 295 181 305 181 5 0 9
5 9 10 0 6 4 10 8 10 5 0 85 46 178 101 93 56 185 111 205 123 70 41 434 258
449 267 8 5 98 59 200 119 102 60 190 113 195 117 6 4 24 15 40 23 17 8 32 18
35 21 3 4 23 16 45 28 22 12 49 27 60 34 81 51 127 77 133 77 4 0 17 7 27 16
19 15 614 371 705 422 25 13 64 37 87 52 22 16 51 31 62 35 12 3 21 11 21 16
0 5 5 9 10 9 6 0 36 16 66 35 30 19 57 35 60 35 2 0 28 16 57 35 28 19 55 35
59 35 4 0 26 13 50 29 24 15 64 40 90 54 25 14 66 38 90 53 23 15 52 33 63 39
55 29 323 191 342 205 l22 17 -39 19 c-22 10 -40 22 -40 27 0 4 -5 7 -10 7 -6
0 -88 46 -183 102 -94 56 -197 116 -227 133 -30 17 -161 94 -290 170 -129 76
-248 146 -265 155 -43 24 -237 138 -255 150 -8 5 -44 26 -80 46 -36 21 -120
70 -188 111 -67 40 -124 73 -126 73 -1 0 -78 45 -170 100 -92 55 -169 100
-172 100 -4 0 -76 43 -130 78 -10 6 -29 17 -41 24 -25 13 -24 13 -253 -114
-74 -41 -164 -91 -200 -110 -36 -19 -92 -50 -125 -69 -129 -71 -155 -85 -226
-123 -41 -21 -78 -42 -84 -46 -5 -4 -46 -26 -90 -50 -135 -72 -208 -112 -245
-133 -19 -11 -55 -31 -80 -45 -25 -13 -67 -37 -95 -52 -27 -15 -70 -39 -95
-52 -25 -14 -79 -44 -121 -67 -69 -37 -78 -40 -92 -26 -9 8 -20 15 -26 15 -5
0 -27 11 -47 25 -20 14 -43 25 -50 25 -7 0 -14 3 -16 8 -1 4 -66 43 -143 87
-77 44 -158 90 -180 103 -22 12 -55 30 -72 39 -18 9 -33 20 -33 25 0 4 -7 8
-16 8 -9 0 -27 9 -40 19 l-24 19 25 16 c13 9 26 16 29 16 2 0 42 22 88 48 46
27 112 64 148 84 36 20 186 104 334 187 148 83 272 151 277 151 5 0 9 5 9 10
0 6 4 10 9 10 9 0 186 97 221 120 8 6 26 16 40 22 14 7 63 35 110 61 47 27
110 63 140 80 30 16 163 91 295 165 132 74 265 149 295 165 30 17 72 41 92 54
21 13 39 23 41 23 2 0 43 22 91 49 l88 49 100 -59 c55 -32 102 -59 105 -59 3
0 25 -13 50 -30 24 -16 46 -30 48 -30 2 0 28 -14 57 -31 29 -18 67 -40 83 -49
117 -67 517 -299 1283 -744 205 -119 377 -216 382 -216 6 0 10 -4 10 -10 0 -5
6 -10 14 -10 7 0 19 -7 26 -15 7 -9 15 -13 18 -10 3 3 12 -1 21 -9 9 -7 43
-28 76 -46 33 -18 67 -39 76 -46 8 -8 18 -14 22 -14 3 0 67 -36 143 -80 75
-44 140 -80 145 -80 5 0 9 -4 9 -10 0 -5 3 -9 8 -8 4 1 21 -6 37 -16 17 -11
46 -29 65 -41 l35 -22 0 -1292 c0 -711 3 -1301 7 -1312 4 -10 12 -19 17 -19 6
0 57 -30 113 -67 57 -37 105 -67 108 -68 3 0 19 -9 35 -21 17 -11 47 -31 68
-43 l37 -23 0 1569 0 1568 -156 90 c-163 94 -173 100 -319 185 -49 29 -194
113 -321 186 -128 73 -273 158 -324 189 -51 30 -94 55 -95 55 -2 0 -36 19 -77
43 -40 24 -93 55 -118 69 -75 42 -173 99 -200 116 -14 9 -28 15 -32 14 -5 -1
-8 2 -8 8 0 5 -5 10 -10 10 -6 0 -29 11 -51 26 -22 14 -55 33 -72 43 -18 10
-131 76 -252 146 -121 70 -245 141 -275 158 -30 16 -62 36 -70 43 -8 7 -26 17
-40 23 -14 6 -38 20 -55 31 -16 10 -41 25 -55 33 -83 46 -129 73 -162 94 -21
12 -42 23 -48 23 -5 0 -10 5 -10 11 0 5 -4 8 -9 5 -5 -3 -14 1 -21 9 -7 8 -19
15 -26 15 -8 0 -14 5 -14 10 0 6 -4 10 -8 10 -7 0 -114 59 -182 100 -96 58
-157 93 -175 100 -16 6 -38 -2 -93 -36z"/>
</g>
</svg>
